<svg width="600" height="392" xmlns="http://www.w3.org/2000/svg"> <rect width="100%" height="100%" fill="#FEFEFE" />
<line x1="70" y1="252" x2="530" y2="252" stroke="#9f9f9f" stroke-width="1" />
<rect x="70" y="87" width="460" height="165" fill="#FEFEFE" />
<text text-anchor="middle" x="300.0" y="20" font-family="'Helvetica Neue', Arial, sans-serif" font-weight="bold" font-size="22" fill="#000000">Google searches for &apos;Taylor Swift&apos;</text>
<text text-anchor="middle" x="300.0" y="42" font-family="'Helvetica Neue', Arial, sans-serif" font-size="14" fill="#000000">correlates with</text>
<text text-anchor="middle" x="300.0" y="68" font-family="'Helvetica Neue', Arial, sans-serif" font-weight="bold" font-size="22" fill="#ba0f27">Fossil fuel use in British Virgin Islands</text>
<text text-anchor="start" x="23" y="297.3333333333333" font-family="'Helvetica Neue', Arial, sans-serif" font-size="14" fill="#9f9f9f">Relative volume of Google searches for &apos;Taylor Swift&apos; (Worldwide,</text>
<text text-anchor="start" x="23" y="313.3333333333333" font-family="'Helvetica Neue', Arial, sans-serif" font-size="14" fill="#9f9f9f">without quotes) &#183; Source: Google Trends</text>
<text text-anchor="start" x="23" y="336.66666666666663" font-family="'Helvetica Neue', Arial, sans-serif" font-size="14" fill="#9f9f9f">Total fossil fuel use in British Virgin Islands in billion kWh &#183; Source:</text>
<text text-anchor="start" x="23" y="352.66666666666663" font-family="'Helvetica Neue', Arial, sans-serif" font-size="14" fill="#9f9f9f">Energy Information Administration</text>
<text text-anchor="start" x="23" y="375.99999999999994" font-family="'Helvetica Neue', Arial, sans-serif" font-size="14" fill="#9f9f9f">2006-2021, r=0.902, r&#178;=0.814, p&lt;0.01  &#183;  tylervigen.com/spurious/correlation/5825</text>
<polyline points="5,292.66666666666663 20,292.66666666666663" style="fill:none;stroke:#000000;stroke-width:2.8" stroke-dasharray="3,1" />
<polygon points="1.7000000000000002,292.66666666666663 5,289.3666666666666 8.3,292.66666666666663 5,295.96666666666664" stroke="#F7F7F7" stroke-width="2.75" fill="#F7F7F7"  />
<polygon points="1.7000000000000002,292.66666666666663 5,289.3666666666666 8.3,292.66666666666663 5,295.96666666666664" stroke="#000000" stroke-width="2.75" fill="#000000"  />
<polyline points="5,331.99999999999994 20,331.99999999999994" style="fill:none;stroke:#ba0f27;stroke-width:2.8" />
<circle cx="5" cy="331.99999999999994" r="2.75" stroke="#F7F7F7" stroke-width="2.75" fill="#F7F7F7" />
<circle cx="5" cy="331.99999999999994" r="2.75" stroke="#ba0f27" stroke-width="2.75" fill="#ba0f27"  />
<text x="5" y="174.5" transform="rotate(270 5 169.5)" text-anchor="middle" fill="#000000" font-family="'Helvetica Neue', Arial, sans-serif" font-size="14" dominant-baseline="central">Rel. search volume</text>
<text x="169.5" y="-389" transform="rotate(90 100 100)" text-anchor="middle" fill="#ba0f27" font-family="'Helvetica Neue', Arial, sans-serif" font-size="14" dominant-baseline="central">Billion kWh</text>
<line x1="71" y1="94.75" x2="528" y2="94.75" stroke="#F3F3F3" stroke-width="1" fill="#FEFEFE" />
<text text-anchor="end" x="62" y="99.41666666666667" font-family="'Helvetica Neue', Arial, sans-serif" font-size="12" fill="#000000">61</text>
<text text-anchor="start" x="538" y="99.41666666666667" font-family="'Helvetica Neue', Arial, sans-serif" font-size="11" fill="#ba0f27">0.198</text>
<line x1="71" y1="132.125" x2="528" y2="132.125" stroke="#F3F3F3" stroke-width="1" fill="#FEFEFE" />
<text text-anchor="end" x="62" y="136.79166666666666" font-family="'Helvetica Neue', Arial, sans-serif" font-size="12">46</text>
<text text-anchor="start" x="538" y="136.79166666666666" font-family="'Helvetica Neue', Arial, sans-serif" font-size="11" fill="#ba0f27">0.173</text>
<line x1="71" y1="169.5" x2="528" y2="169.5" stroke="#F3F3F3" stroke-width="1" fill="#FEFEFE" />
<text text-anchor="end" x="62" y="174.16666666666666" font-family="'Helvetica Neue', Arial, sans-serif" font-size="12">32</text>
<text text-anchor="start" x="538" y="174.16666666666666" font-family="'Helvetica Neue', Arial, sans-serif" font-size="11" fill="#ba0f27">0.149</text>
<line x1="71" y1="206.875" x2="528" y2="206.875" stroke="#F3F3F3" stroke-width="1" fill="#FEFEFE" />
<text text-anchor="end" x="62" y="211.54166666666666" font-family="'Helvetica Neue', Arial, sans-serif" font-size="12">17</text>
<text text-anchor="start" x="538" y="211.54166666666666" font-family="'Helvetica Neue', Arial, sans-serif" font-size="11" fill="#ba0f27">0.124</text>
<line x1="71" y1="244.25" x2="528" y2="244.25" stroke="#F3F3F3" stroke-width="1" fill="#FEFEFE" />
<text text-anchor="end" x="62" y="248.91666666666666" font-family="'Helvetica Neue', Arial, sans-serif" font-size="12">3</text>
<text text-anchor="start" x="538" y="248.91666666666666" font-family="'Helvetica Neue', Arial, sans-serif" font-size="11" fill="#ba0f27">0.1</text>
<polyline points="77.75,252 77.75,258" style="fill:none;stroke:#000000;stroke-width:1" />
<polyline points="166.65,252 166.65,258" style="fill:none;stroke:#000000;stroke-width:1" />
<polyline points="255.55,252 255.55,258" style="fill:none;stroke:#000000;stroke-width:1" />
<polyline points="344.45000000000005,252 344.45000000000005,258" style="fill:none;stroke:#000000;stroke-width:1" />
<polyline points="433.35,252 433.35,258" style="fill:none;stroke:#000000;stroke-width:1" />
<polyline points="522.25,252 522.25,258" style="fill:none;stroke:#000000;stroke-width:1" />
<text text-anchor="middle" x="77.75" y="273" font-weight="bold" font-family="'Helvetica Neue', Arial, sans-serif" font-size="14">2006</text>
<text text-anchor="middle" x="166.65" y="273" font-weight="bold" font-family="'Helvetica Neue', Arial, sans-serif" font-size="14">2009</text>
<text text-anchor="middle" x="255.55" y="273" font-weight="bold" font-family="'Helvetica Neue', Arial, sans-serif" font-size="14">2012</text>
<text text-anchor="middle" x="344.45000000000005" y="273" font-weight="bold" font-family="'Helvetica Neue', Arial, sans-serif" font-size="14">2015</text>
<text text-anchor="middle" x="433.35" y="273" font-weight="bold" font-family="'Helvetica Neue', Arial, sans-serif" font-size="14">2018</text>
<text text-anchor="middle" x="522.25" y="273" font-weight="bold" font-family="'Helvetica Neue', Arial, sans-serif" font-size="14">2021</text>
<polyline points="77.75,244.25 107.38333333333333,238.14297385620918" style="fill:none;stroke:#ba0f27;stroke-width:2.8"  />
<polyline points="107.38333333333333,238.14297385620918 137.01666666666665,219.8218954248366" style="fill:none;stroke:#ba0f27;stroke-width:2.8"  />
<polyline points="137.01666666666665,219.8218954248366 166.65,167.91217320261438" style="fill:none;stroke:#ba0f27;stroke-width:2.8"  />
<polyline points="166.65,167.91217320261438 196.28333333333333,116.00245098039218" style="fill:none;stroke:#ba0f27;stroke-width:2.8"  />
<polyline points="196.28333333333333,116.00245098039218 225.91666666666666,122.10947712418303" style="fill:none;stroke:#ba0f27;stroke-width:2.8"  />
<polyline points="225.91666666666666,122.10947712418303 255.55,114.47569444444447" style="fill:none;stroke:#ba0f27;stroke-width:2.8"  />
<polyline points="255.55,114.47569444444447 285.18333333333334,114.47569444444447" style="fill:none;stroke:#ba0f27;stroke-width:2.8"  />
<polyline points="285.18333333333334,114.47569444444447 314.81666666666666,113.9138480392157" style="fill:none;stroke:#ba0f27;stroke-width:2.8"  />
<polyline points="314.81666666666666,113.9138480392157 344.45,97.72717524509805" style="fill:none;stroke:#ba0f27;stroke-width:2.8"  />
<polyline points="344.45,97.72717524509805 374.0833333333333,94.75" style="fill:none;stroke:#ba0f27;stroke-width:2.8"  />
<polyline points="374.0833333333333,94.75 403.71666666666664,185.24085988562092" style="fill:none;stroke:#ba0f27;stroke-width:2.8"  />
<polyline points="403.71666666666664,185.24085988562092 433.35,188.82873774509807" style="fill:none;stroke:#ba0f27;stroke-width:2.8"  />
<polyline points="433.35,188.82873774509807 462.98333333333335,187.39358660130722" style="fill:none;stroke:#ba0f27;stroke-width:2.8"  />
<polyline points="462.98333333333335,187.39358660130722 492.6166666666667,197.98316993464053" style="fill:none;stroke:#ba0f27;stroke-width:2.8"  />
<polyline points="492.6166666666667,197.98316993464053 522.25,185.25002042483663" style="fill:none;stroke:#ba0f27;stroke-width:2.8"  />
<circle cx="77.75" cy="244.25" r="2.75" stroke="#F7F7F7" stroke-width="2.75" fill="#F7F7F7" />
<circle cx="77.75" cy="244.25" r="2.75" stroke="#ba0f27" stroke-width="2.75" fill="#ba0f27"  />
<circle cx="107.38333333333333" cy="238.14297385620918" r="2.75" stroke="#F7F7F7" stroke-width="2.75" fill="#F7F7F7" />
<circle cx="107.38333333333333" cy="238.14297385620918" r="2.75" stroke="#ba0f27" stroke-width="2.75" fill="#ba0f27"  />
<circle cx="137.01666666666665" cy="219.8218954248366" r="2.75" stroke="#F7F7F7" stroke-width="2.75" fill="#F7F7F7" />
<circle cx="137.01666666666665" cy="219.8218954248366" r="2.75" stroke="#ba0f27" stroke-width="2.75" fill="#ba0f27"  />
<circle cx="166.65" cy="167.91217320261438" r="2.75" stroke="#F7F7F7" stroke-width="2.75" fill="#F7F7F7" />
<circle cx="166.65" cy="167.91217320261438" r="2.75" stroke="#ba0f27" stroke-width="2.75" fill="#ba0f27"  />
<circle cx="196.28333333333333" cy="116.00245098039218" r="2.75" stroke="#F7F7F7" stroke-width="2.75" fill="#F7F7F7" />
<circle cx="196.28333333333333" cy="116.00245098039218" r="2.75" stroke="#ba0f27" stroke-width="2.75" fill="#ba0f27"  />
<circle cx="225.91666666666666" cy="122.10947712418303" r="2.75" stroke="#F7F7F7" stroke-width="2.75" fill="#F7F7F7" />
<circle cx="225.91666666666666" cy="122.10947712418303" r="2.75" stroke="#ba0f27" stroke-width="2.75" fill="#ba0f27"  />
<circle cx="255.55" cy="114.47569444444447" r="2.75" stroke="#F7F7F7" stroke-width="2.75" fill="#F7F7F7" />
<circle cx="255.55" cy="114.47569444444447" r="2.75" stroke="#ba0f27" stroke-width="2.75" fill="#ba0f27"  />
<circle cx="285.18333333333334" cy="114.47569444444447" r="2.75" stroke="#F7F7F7" stroke-width="2.75" fill="#F7F7F7" />
<circle cx="285.18333333333334" cy="114.47569444444447" r="2.75" stroke="#ba0f27" stroke-width="2.75" fill="#ba0f27"  />
<circle cx="314.81666666666666" cy="113.9138480392157" r="2.75" stroke="#F7F7F7" stroke-width="2.75" fill="#F7F7F7" />
<circle cx="314.81666666666666" cy="113.9138480392157" r="2.75" stroke="#ba0f27" stroke-width="2.75" fill="#ba0f27"  />
<circle cx="344.45" cy="97.72717524509805" r="2.75" stroke="#F7F7F7" stroke-width="2.75" fill="#F7F7F7" />
<circle cx="344.45" cy="97.72717524509805" r="2.75" stroke="#ba0f27" stroke-width="2.75" fill="#ba0f27"  />
<circle cx="374.0833333333333" cy="94.75" r="2.75" stroke="#F7F7F7" stroke-width="2.75" fill="#F7F7F7" />
<circle cx="374.0833333333333" cy="94.75" r="2.75" stroke="#ba0f27" stroke-width="2.75" fill="#ba0f27"  />
<circle cx="403.71666666666664" cy="185.24085988562092" r="2.75" stroke="#F7F7F7" stroke-width="2.75" fill="#F7F7F7" />
<circle cx="403.71666666666664" cy="185.24085988562092" r="2.75" stroke="#ba0f27" stroke-width="2.75" fill="#ba0f27"  />
<circle cx="433.35" cy="188.82873774509807" r="2.75" stroke="#F7F7F7" stroke-width="2.75" fill="#F7F7F7" />
<circle cx="433.35" cy="188.82873774509807" r="2.75" stroke="#ba0f27" stroke-width="2.75" fill="#ba0f27"  />
<circle cx="462.98333333333335" cy="187.39358660130722" r="2.75" stroke="#F7F7F7" stroke-width="2.75" fill="#F7F7F7" />
<circle cx="462.98333333333335" cy="187.39358660130722" r="2.75" stroke="#ba0f27" stroke-width="2.75" fill="#ba0f27"  />
<circle cx="492.6166666666667" cy="197.98316993464053" r="2.75" stroke="#F7F7F7" stroke-width="2.75" fill="#F7F7F7" />
<circle cx="492.6166666666667" cy="197.98316993464053" r="2.75" stroke="#ba0f27" stroke-width="2.75" fill="#ba0f27"  />
<circle cx="522.25" cy="185.25002042483663" r="2.75" stroke="#F7F7F7" stroke-width="2.75" fill="#F7F7F7" />
<circle cx="522.25" cy="185.25002042483663" r="2.75" stroke="#ba0f27" stroke-width="2.75" fill="#ba0f27"  />
<polyline points="77.75,244.25 107.38333333333333,236.0477740242639" style="fill:none;stroke:#000000;stroke-width:2.8" stroke-dasharray="3,1"  />
<polyline points="107.38333333333333,236.0477740242639 137.01666666666665,212.35575860375224" style="fill:none;stroke:#000000;stroke-width:2.8" stroke-dasharray="3,1"  />
<polyline points="137.01666666666665,212.35575860375224 166.65,137.86497402474362" style="fill:none;stroke:#000000;stroke-width:2.8" stroke-dasharray="3,1"  />
<polyline points="166.65,137.86497402474362 196.28333333333333,148.96381483084946" style="fill:none;stroke:#000000;stroke-width:2.8" stroke-dasharray="3,1"  />
<polyline points="196.28333333333333,148.96381483084946 225.91666666666666,166.03917125714486" style="fill:none;stroke:#000000;stroke-width:2.8" stroke-dasharray="3,1"  />
<polyline points="225.91666666666666,166.03917125714486 255.55,141.92026552274916" style="fill:none;stroke:#000000;stroke-width:2.8" stroke-dasharray="3,1"  />
<polyline points="255.55,141.92026552274916 285.18333333333334,129.3274238761288" style="fill:none;stroke:#000000;stroke-width:2.8" stroke-dasharray="3,1"  />
<polyline points="285.18333333333334,129.3274238761288 314.81666666666666,138.71865220088537" style="fill:none;stroke:#000000;stroke-width:2.8" stroke-dasharray="3,1"  />
<polyline points="314.81666666666666,138.71865220088537 344.45,94.75" style="fill:none;stroke:#000000;stroke-width:2.8" stroke-dasharray="3,1"  />
<polyline points="344.45,94.75 374.0833333333333,157.07465395592627" style="fill:none;stroke:#000000;stroke-width:2.8" stroke-dasharray="3,1"  />
<polyline points="374.0833333333333,157.07465395592627 403.71666666666664,178.84562454459996" style="fill:none;stroke:#000000;stroke-width:2.8" stroke-dasharray="3,1"  />
<polyline points="403.71666666666664,178.84562454459996 433.35,203.39124130253367" style="fill:none;stroke:#000000;stroke-width:2.8" stroke-dasharray="3,1"  />
<polyline points="433.35,203.39124130253367 462.98333333333335,198.69562714015535" style="fill:none;stroke:#000000;stroke-width:2.8" stroke-dasharray="3,1"  />
<polyline points="462.98333333333335,198.69562714015535 492.6166666666667,203.6048529433684" style="fill:none;stroke:#000000;stroke-width:2.8" stroke-dasharray="3,1"  />
<polyline points="492.6166666666667,203.6048529433684 522.25,199.97627246890087" style="fill:none;stroke:#000000;stroke-width:2.8" stroke-dasharray="3,1"  />
<polygon points="74.45,244.25 77.75,240.95 81.05,244.25 77.75,247.55" stroke="#F7F7F7" stroke-width="2.75" fill="#F7F7F7"  />
<polygon points="74.45,244.25 77.75,240.95 81.05,244.25 77.75,247.55" stroke="#000000" stroke-width="2.75" fill="#000000"  />
<polygon points="104.08333333333333,236.0477740242639 107.38333333333333,232.7477740242639 110.68333333333332,236.0477740242639 107.38333333333333,239.3477740242639" stroke="#F7F7F7" stroke-width="2.75" fill="#F7F7F7"  />
<polygon points="104.08333333333333,236.0477740242639 107.38333333333333,232.7477740242639 110.68333333333332,236.0477740242639 107.38333333333333,239.3477740242639" stroke="#000000" stroke-width="2.75" fill="#000000"  />
<polygon points="133.71666666666664,212.35575860375224 137.01666666666665,209.05575860375222 140.31666666666666,212.35575860375224 137.01666666666665,215.65575860375225" stroke="#F7F7F7" stroke-width="2.75" fill="#F7F7F7"  />
<polygon points="133.71666666666664,212.35575860375224 137.01666666666665,209.05575860375222 140.31666666666666,212.35575860375224 137.01666666666665,215.65575860375225" stroke="#000000" stroke-width="2.75" fill="#000000"  />
<polygon points="163.35,137.86497402474362 166.65,134.5649740247436 169.95000000000002,137.86497402474362 166.65,141.16497402474363" stroke="#F7F7F7" stroke-width="2.75" fill="#F7F7F7"  />
<polygon points="163.35,137.86497402474362 166.65,134.5649740247436 169.95000000000002,137.86497402474362 166.65,141.16497402474363" stroke="#000000" stroke-width="2.75" fill="#000000"  />
<polygon points="192.98333333333332,148.96381483084946 196.28333333333333,145.66381483084945 199.58333333333334,148.96381483084946 196.28333333333333,152.26381483084947" stroke="#F7F7F7" stroke-width="2.75" fill="#F7F7F7"  />
<polygon points="192.98333333333332,148.96381483084946 196.28333333333333,145.66381483084945 199.58333333333334,148.96381483084946 196.28333333333333,152.26381483084947" stroke="#000000" stroke-width="2.75" fill="#000000"  />
<polygon points="222.61666666666665,166.03917125714486 225.91666666666666,162.73917125714485 229.21666666666667,166.03917125714486 225.91666666666666,169.33917125714487" stroke="#F7F7F7" stroke-width="2.75" fill="#F7F7F7"  />
<polygon points="222.61666666666665,166.03917125714486 225.91666666666666,162.73917125714485 229.21666666666667,166.03917125714486 225.91666666666666,169.33917125714487" stroke="#000000" stroke-width="2.75" fill="#000000"  />
<polygon points="252.25,141.92026552274916 255.55,138.62026552274915 258.85,141.92026552274916 255.55,145.22026552274917" stroke="#F7F7F7" stroke-width="2.75" fill="#F7F7F7"  />
<polygon points="252.25,141.92026552274916 255.55,138.62026552274915 258.85,141.92026552274916 255.55,145.22026552274917" stroke="#000000" stroke-width="2.75" fill="#000000"  />
<polygon points="281.8833333333333,129.3274238761288 285.18333333333334,126.0274238761288 288.48333333333335,129.3274238761288 285.18333333333334,132.6274238761288" stroke="#F7F7F7" stroke-width="2.75" fill="#F7F7F7"  />
<polygon points="281.8833333333333,129.3274238761288 285.18333333333334,126.0274238761288 288.48333333333335,129.3274238761288 285.18333333333334,132.6274238761288" stroke="#000000" stroke-width="2.75" fill="#000000"  />
<polygon points="311.51666666666665,138.71865220088537 314.81666666666666,135.41865220088536 318.1166666666667,138.71865220088537 314.81666666666666,142.01865220088538" stroke="#F7F7F7" stroke-width="2.75" fill="#F7F7F7"  />
<polygon points="311.51666666666665,138.71865220088537 314.81666666666666,135.41865220088536 318.1166666666667,138.71865220088537 314.81666666666666,142.01865220088538" stroke="#000000" stroke-width="2.75" fill="#000000"  />
<polygon points="341.15,94.75 344.45,91.45 347.75,94.75 344.45,98.05" stroke="#F7F7F7" stroke-width="2.75" fill="#F7F7F7"  />
<polygon points="341.15,94.75 344.45,91.45 347.75,94.75 344.45,98.05" stroke="#000000" stroke-width="2.75" fill="#000000"  />
<polygon points="370.7833333333333,157.07465395592627 374.0833333333333,153.77465395592625 377.3833333333333,157.07465395592627 374.0833333333333,160.37465395592628" stroke="#F7F7F7" stroke-width="2.75" fill="#F7F7F7"  />
<polygon points="370.7833333333333,157.07465395592627 374.0833333333333,153.77465395592625 377.3833333333333,157.07465395592627 374.0833333333333,160.37465395592628" stroke="#000000" stroke-width="2.75" fill="#000000"  />
<polygon points="400.41666666666663,178.84562454459996 403.71666666666664,175.54562454459995 407.01666666666665,178.84562454459996 403.71666666666664,182.14562454459997" stroke="#F7F7F7" stroke-width="2.75" fill="#F7F7F7"  />
<polygon points="400.41666666666663,178.84562454459996 403.71666666666664,175.54562454459995 407.01666666666665,178.84562454459996 403.71666666666664,182.14562454459997" stroke="#000000" stroke-width="2.75" fill="#000000"  />
<polygon points="430.05,203.39124130253367 433.35,200.09124130253366 436.65000000000003,203.39124130253367 433.35,206.69124130253368" stroke="#F7F7F7" stroke-width="2.75" fill="#F7F7F7"  />
<polygon points="430.05,203.39124130253367 433.35,200.09124130253366 436.65000000000003,203.39124130253367 433.35,206.69124130253368" stroke="#000000" stroke-width="2.75" fill="#000000"  />
<polygon points="459.68333333333334,198.69562714015535 462.98333333333335,195.39562714015534 466.28333333333336,198.69562714015535 462.98333333333335,201.99562714015536" stroke="#F7F7F7" stroke-width="2.75" fill="#F7F7F7"  />
<polygon points="459.68333333333334,198.69562714015535 462.98333333333335,195.39562714015534 466.28333333333336,198.69562714015535 462.98333333333335,201.99562714015536" stroke="#000000" stroke-width="2.75" fill="#000000"  />
<polygon points="489.31666666666666,203.6048529433684 492.6166666666667,200.3048529433684 495.9166666666667,203.6048529433684 492.6166666666667,206.9048529433684" stroke="#F7F7F7" stroke-width="2.75" fill="#F7F7F7"  />
<polygon points="489.31666666666666,203.6048529433684 492.6166666666667,200.3048529433684 495.9166666666667,203.6048529433684 492.6166666666667,206.9048529433684" stroke="#000000" stroke-width="2.75" fill="#000000"  />
<polygon points="518.95,199.97627246890087 522.25,196.67627246890086 525.55,199.97627246890087 522.25,203.27627246890088" stroke="#F7F7F7" stroke-width="2.75" fill="#F7F7F7"  />
<polygon points="518.95,199.97627246890087 522.25,196.67627246890086 525.55,199.97627246890087 522.25,203.27627246890088" stroke="#000000" stroke-width="2.75" fill="#000000"  />
</svg>